Coordinates
version=1
nRows=13
nColumns=63
inDegrees=yes

Units are S.I. units (second, meters, Newtons, ...)
If the header above contains a line with 'inDegrees', this indicates whether rotational values are in degrees (yes) or radians (no).

endheader
time	pelvis_tilt	pelvis_list	pelvis_rotation	pelvis_tx	pelvis_ty	pelvis_tz	hip_flexion_r	hip_adduction_r	hip_rotation_r	knee_angle_r	knee_angle_r_beta	ankle_angle_r	subtalar_angle_r	mtp_angle_r	hip_flexion_l	hip_adduction_l	hip_rotation_l	knee_angle_l	knee_angle_l_beta	ankle_angle_l	subtalar_angle_l	mtp_angle_l	L5_S1_Flex_Ext	L5_S1_Lat_Bending	L5_S1_axial_rotation	L4_L5_Flex_Ext	L4_L5_Lat_Bending	L4_L5_axial_rotation	L3_L4_Flex_Ext	L3_L4_Lat_Bending	L3_L4_axial_rotation	L2_L3_Flex_Ext	L2_L3_Lat_Bending	L2_L3_axial_rotation	L1_L2_Flex_Ext	L1_L2_Lat_Bending	L1_L2_axial_rotation	L1_T12_Flex_Ext	L1_T12_Lat_Bending	L1_T12_axial_rotation	Abs_r3	Abs_r2	Abs_r1	Abs_t1	Abs_t2	neck_flexion	neck_bending	neck_rotation	arm_flex_r	arm_add_r	arm_rot_r	elbow_flex_r	pro_sup_r	wrist_flex_r	wrist_dev_r	arm_flex_l	arm_add_l	arm_rot_l	elbow_flex_l	pro_sup_l	wrist_flex_l	wrist_dev_l
0.692308	-3.317463	-4.009657	100.894646	0.274086	0.752299	0.778623	-7.457287	3.812588	-18.274994	0.399652	0.006975	10.646636	-9.419028	0.000000	-4.384829	-2.761513	11.922959	0.253308	0.004421	32.629779	1.203626	0.000000	0.172537	0.521228	-1.697616	0.320419	0.693233	-1.803717	0.283462	1.267314	-1.803717	0.197193	1.267314	-1.485414	0.160218	1.062888	-1.379313	0.098588	0.807382	-1.273212	1.232417	5.896236	-9.441633	0.000000	0.000000	14.093519	2.278221	13.685383	21.197342	-13.904404	84.160174	50.286969	10.547175	1.544772	21.878993	8.090606	-6.362456	46.520145	44.573308	85.576306	13.350681	-0.162289
0.711538	-3.371757	-3.958580	100.954198	0.274180	0.752555	0.778967	-7.474233	3.783334	-18.130495	0.374075	0.006529	10.636601	-9.619286	0.000000	-4.384070	-2.722325	11.652244	0.240384	0.004195	32.688202	1.560091	0.000000	0.166433	0.502314	-1.666316	0.309083	0.668078	-1.770461	0.273433	1.221326	-1.770461	0.190217	1.221326	-1.458027	0.154550	1.024319	-1.353882	0.095100	0.778084	-1.249737	1.188816	5.682276	-9.267551	0.000000	0.000000	13.542769	2.295937	12.983274	20.956463	-13.847844	83.354045	50.102692	11.329563	1.859603	21.997379	8.445801	-6.445748	47.141142	44.408486	85.910832	13.451452	-0.433964
0.730769	-3.424871	-3.882102	100.984279	0.274331	0.752831	0.779271	-7.504225	3.751092	-18.014890	0.375756	0.006558	10.728114	-9.657941	0.000000	-4.409522	-2.687212	11.331803	0.247189	0.004314	32.733442	1.919955	0.000000	0.157920	0.483040	-1.624044	0.293272	0.642443	-1.725547	0.259446	1.174463	-1.725547	0.180486	1.174463	-1.421039	0.146644	0.985015	-1.319536	0.090235	0.748229	-1.218033	1.128003	5.464243	-9.032446	0.000000	0.000000	12.995835	2.303234	12.218455	20.779686	-13.798266	82.718348	49.914705	12.268961	2.231125	21.913737	8.866430	-6.555089	48.008510	44.241746	86.216527	13.266861	-0.836610
0.750000	-3.475086	-3.785687	101.000641	0.274509	0.753111	0.779480	-7.561749	3.725486	-17.853249	0.374402	0.006535	10.848215	-9.703454	0.000000	-4.470101	-2.659748	11.116253	0.252565	0.004408	32.736569	2.119019	0.000000	0.148937	0.463745	-1.574234	0.276591	0.616781	-1.672624	0.244689	1.127550	-1.672624	0.170220	1.127550	-1.377455	0.138303	0.945670	-1.279065	0.085103	0.718342	-1.180676	1.063842	5.245980	-8.755418	0.000000	0.000000	12.431197	2.308287	11.439101	20.623479	-13.760021	82.164042	49.743266	13.176774	2.582095	21.816348	9.333697	-6.678610	49.120269	44.045848	86.599084	12.735838	-1.500256
0.769231	-3.522258	-3.673625	100.966473	0.274774	0.753374	0.779664	-7.641763	3.700748	-17.509368	0.371906	0.006491	10.984412	-9.889964	0.000000	-4.562672	-2.636797	10.897327	0.257488	0.004494	32.738887	2.272074	0.000000	0.137697	0.444046	-1.511799	0.255718	0.590582	-1.606287	0.226223	1.079655	-1.606287	0.157374	1.079655	-1.322824	0.127866	0.905500	-1.228337	0.078680	0.687828	-1.133850	0.983559	5.023142	-8.408174	0.000000	0.000000	11.875793	2.294458	10.613426	20.518867	-13.734079	81.743364	49.609523	13.903599	2.853624	21.712674	9.864487	-6.824189	50.498420	43.817522	87.056695	11.817652	-2.459506
0.788462	-3.574089	-3.550129	100.929211	0.275076	0.753632	0.779779	-7.748144	3.678336	-17.216760	0.368612	0.006433	11.101369	-10.066442	0.000000	-4.681752	-2.615361	10.731690	0.261811	0.004569	32.724821	2.372891	0.000000	0.125834	0.423330	-1.448941	0.233687	0.563029	-1.539500	0.206733	1.029284	-1.539500	0.143816	1.029284	-1.267824	0.116850	0.863254	-1.177265	0.071902	0.655738	-1.086706	0.898822	4.788792	-8.058577	0.000000	0.000000	11.252360	2.302163	9.900822	20.405480	-13.708677	81.323604	49.490532	14.591000	3.089637	21.700608	10.398094	-6.972203	51.903154	43.571816	87.481731	10.911443	-3.450806
0.807692	-3.621993	-3.423057	100.902114	0.275372	0.753871	0.779890	-7.869648	3.664655	-17.083232	0.369596	0.006451	11.222421	-10.111037	0.000000	-4.811021	-2.601638	10.599470	0.266143	0.004645	32.723423	2.467504	0.000000	0.112455	0.402755	-1.389809	0.208841	0.535664	-1.476673	0.184753	0.979259	-1.476673	0.128525	0.979259	-1.216083	0.104426	0.821298	-1.129220	0.064257	0.623868	-1.042357	0.803257	4.556046	-7.729703	0.000000	0.000000	10.606850	2.297890	9.267505	20.283509	-13.695860	80.895975	49.403039	15.307694	3.317812	21.708974	10.913472	-7.113706	53.249445	43.334793	87.889843	9.965198	-4.441126
0.826923	-3.666945	-3.299146	100.903567	0.275626	0.754106	0.780032	-7.998090	3.658519	-17.117327	0.375959	0.006562	11.314660	-10.052795	0.000000	-4.938245	-2.593404	10.500158	0.270646	0.004724	32.717976	2.583086	0.000000	0.097994	0.382709	-1.338866	0.181985	0.509002	-1.422545	0.160995	0.930518	-1.422545	0.111998	0.930518	-1.171507	0.090998	0.780419	-1.087828	0.055994	0.592816	-1.004149	0.699965	4.329276	-7.446368	0.000000	0.000000	9.934846	2.278887	8.721943	20.168527	-13.691103	80.479400	49.336576	15.960120	3.569986	21.798872	11.467422	-7.265808	54.721205	43.075132	88.202852	8.789493	-5.595565
0.846154	-3.702738	-3.192847	100.907286	0.275863	0.754308	0.780196	-8.117000	3.657693	-17.313412	0.386431	0.006744	11.390068	-9.820984	0.000000	-5.050964	-2.591911	10.404097	0.274840	0.004797	32.712951	2.727484	0.000000	0.083689	0.364366	-1.294443	0.155419	0.484607	-1.375345	0.137493	0.885920	-1.375345	0.095648	0.885920	-1.132637	0.077714	0.743015	-1.051735	0.047820	0.564403	-0.970832	0.597784	4.121783	-7.199301	0.000000	0.000000	9.292378	2.220512	8.267113	20.066602	-13.704481	80.096354	49.321471	16.728084	3.811993	21.819036	11.971380	-7.415326	56.040619	42.870707	88.339806	7.629389	-6.623183
0.865385	-3.728992	-3.120414	100.927110	0.276029	0.754452	0.780392	-8.206313	3.660598	-17.514838	0.399556	0.006974	11.392631	-9.679183	0.000000	-5.126895	-2.591670	10.330558	0.279707	0.004882	32.707759	2.873226	0.000000	0.071351	0.348497	-1.262514	0.132505	0.463501	-1.341421	0.117222	0.847336	-1.341421	0.081547	0.847336	-1.104700	0.066256	0.710655	-1.025793	0.040770	0.539822	-0.946886	0.509651	3.942268	-7.021726	0.000000	0.000000	8.729109	2.128585	7.938868	19.959308	-13.730415	79.684927	49.364666	17.291265	3.985309	21.893581	12.383953	-7.540643	57.076867	42.722756	88.480346	6.512011	-7.603638
0.884615	-3.743989	-3.081669	100.961867	0.276120	0.754539	0.780622	-8.262906	3.665392	-17.819532	0.414863	0.007241	11.376555	-9.430129	0.000000	-5.164098	-2.593819	10.271346	0.284177	0.004960	32.708481	3.023121	0.000000	0.060559	0.335539	-1.244819	0.112464	0.446267	-1.322620	0.099492	0.815829	-1.322620	0.069213	0.815829	-1.089217	0.056235	0.684231	-1.011416	0.034603	0.519750	-0.933614	0.432565	3.795684	-6.923311	0.000000	0.000000	8.279241	2.023667	7.751569	19.876559	-13.764082	79.297661	49.455946	17.873616	4.145953	21.918549	12.664542	-7.640237	57.695579	42.688346	88.507988	5.609768	-8.278164
0.903846	-3.743227	-3.073459	101.022551	0.276129	0.754575	0.780931	-8.283872	3.677472	-18.182763	0.430718	0.007517	11.353634	-9.114720	0.000000	-5.157212	-2.604572	10.216199	0.288760	0.005040	32.712918	3.197695	0.000000	0.050272	0.326159	-1.241649	0.093360	0.433792	-1.319252	0.082591	0.793023	-1.319252	0.057456	0.793023	-1.086443	0.046682	0.665104	-1.008840	0.028725	0.505220	-0.931237	0.359086	3.689576	-6.905681	0.000000	0.000000	7.962672	1.915444	7.681853	19.840642	-13.807712	78.956065	49.588882	18.523964	4.331975	21.858333	12.850143	-7.725074	57.996710	42.747771	88.476653	4.839922	-8.748243
0.923077	-3.735193	-3.110613	101.096238	0.276067	0.754542	0.781310	-8.252561	3.682873	-18.534871	0.445023	0.007767	11.322318	-8.795317	0.000000	-5.093995	-2.609745	10.135110	0.293051	0.005115	32.719151	3.406739	0.000000	0.043641	0.318902	-1.249256	0.081045	0.424139	-1.327334	0.071697	0.775377	-1.327334	0.049877	0.775377	-1.093099	0.040525	0.650304	-1.015020	0.024936	0.493978	-0.936942	0.311720	3.607478	-6.947985	0.000000	0.000000	7.759014	1.813583	7.682933	19.832708	-13.852763	78.618150	49.738789	19.256042	4.572243	21.753374	12.918665	-7.785005	57.936532	42.885781	88.413863	4.271294	-9.026712
